<svg width="27" height="25" viewBox="0 0 27 25" fill="none" xmlns="http://www.w3.org/2000/svg">
<path d="M8.13375 17.0237C6.33909 16.4257 4.26626 14.9899 3.34201 13.5465C3.21988 13.3461 3.16508 13.1118 3.18562 12.878L3.34265 10.4744C3.37662 9.95528 3.99001 9.67967 4.41368 9.98092C5.78147 10.9532 8.28053 12.537 10.0566 12.537C14.5433 12.537 18.389 10.9347 20.3118 7.40942" stroke="black" stroke-linecap="round" stroke-linejoin="round"/>
<path d="M14.5433 24.0742C20.9528 22.7923 26.8771 16.072 25.3542 9.29454L24.7985 6.76855V1.64095L20.9528 1C20.9528 9.29454 19.0299 15.7419 10.6976 17.0238C6.86726 17.6134 3.83621 17.3673 1 15.7419V18.9466C2.83953 21.5104 8.13378 25.3561 14.5433 24.0742Z" stroke="black" stroke-linecap="round" stroke-linejoin="round"/>
</svg>
