<svg width="20" height="30" viewBox="0 0 20 30" fill="none" xmlns="http://www.w3.org/2000/svg">
<path d="M4.78475 27.8902C3.38629 26.4326 2.15284 24.5446 1.45099 22.6861C0.722807 20.7765 0.408248 18.7305 0.521497 16.7004C0.747484 12.5766 2.8827 8.96232 5.96498 6.27541C7.21339 5.19314 8.59243 4.2388 10.0373 3.41188C10.3598 3.2239 11.5041 1.28404 12.886 1.49118C12.886 1.49118 13.3791 1.57105 13.6799 1.90335M6.79246 28.559C8.78566 28.2312 10.9049 27.4602 12.5811 26.3938C14.3153 25.2835 15.794 23.8348 16.9209 22.1424C19.2131 18.7069 19.6719 14.5342 18.8168 10.5356C18.4668 8.92086 17.9356 7.33015 17.2753 5.80195C17.1431 5.48362 17.3908 3.24505 16.167 2.56308C16.167 2.56308 15.7245 2.33127 15.2846 2.41682M12.1751 4.14515C11.8704 4.92987 11.1622 5.49575 10.525 6.04314C6.68339 9.38441 4.0268 14.2388 3.58141 19.2812C3.41448 21.0824 3.51992 22.9111 3.81295 24.6967C4.03708 25.9741 4.25846 27.7148 5.43158 28.5487C6.08319 28.9979 6.8641 28.6039 7.41845 28.24C9.08783 27.1292 10.4539 25.3687 11.5881 23.7842C12.8572 22.0547 13.9114 20.1903 14.6079 18.1645C15.723 15.0122 15.9219 11.5547 15.526 8.25771C15.4151 7.35562 15.0439 6.32465 15.0562 5.44253C15.0754 4.6049 15.7178 3.91158 15.5684 3.05998C15.5342 2.83758 15.4289 2.63369 15.2977 2.4423C14.9111 1.91261 14.2221 1.64086 13.6472 1.87137C13.5244 1.91487 13.4148 1.98386 13.3184 2.07834C13.3184 2.07834 13.3184 2.07834 13.3121 2.09733C12.6165 2.62523 12.4672 3.39842 12.1751 4.14515Z" stroke="black" stroke-miterlimit="10"/>
</svg>
