<svg xmlns="http://www.w3.org/2000/svg" viewBox="0 0 103.1 182.47"><defs><style>.cls-1{fill:#231f20;}.cls-2{fill:#3f3b3c;}.cls-3{fill:#fdc231;}</style></defs><g id="Layer_2" data-name="Layer 2"><g id="Layer_1-2" data-name="Layer 1"><rect class="cls-1" x="1.62" y="1.2" width="100" height="180"/><path class="cls-2" d="M101,181.2c.09.3.28.13.24-.68l-.33-.58Z"/><path class="cls-2" d="M101.57,175.74c-.17-1-.45-2.06-.75-1.44.32.94.18,1.17.56,2.19,0,.81-.1,1.42-.23,1.28.09.29-.07,1.27.14,1.7a9.93,9.93,0,0,0,0-3.79C101.42,175.38,101.5,175.67,101.57,175.74Z"/><path class="cls-2" d="M102.08,96.32l0,.51A3.52,3.52,0,0,0,102.08,96.32Z"/><path class="cls-2" d="M102.26,47.12c0,.37,0,.53.07.55C102.31,47.32,102.29,47,102.26,47.12Z"/><path class="cls-2" d="M102.63,38.72l0,.49A1.7,1.7,0,0,0,102.63,38.72Z"/><path class="cls-2" d="M102.08,96.32l.11-1.31C102.08,94.91,102.11,95.68,102.08,96.32Z"/><path class="cls-2" d="M100.77,164.78a4.64,4.64,0,0,0,.08.72l0-.67Z"/><path class="cls-2" d="M102.35,118v.4a2.52,2.52,0,0,0,.13.33Z"/><path class="cls-2" d="M102.4,134.66c0-.38-.27-.51-.39-.65a2.06,2.06,0,0,1,.19.82S102.32,134.78,102.4,134.66Z"/><path class="cls-2" d="M101.91,161.05l0,.47Z"/><path class="cls-2" d="M102.41,106.1a.33.33,0,0,0,.1-.15S102.44,106,102.41,106.1Z"/><path class="cls-2" d="M82.32,179.88s0,0,0,.05S82.45,179.88,82.32,179.88Z"/><path class="cls-2" d="M101.62,181.27l-.27,0a.31.31,0,0,0-.06.16Z"/><path class="cls-2" d="M103,23.34v.07C103,23.81,103,23.58,103,23.34Z"/><path class="cls-2" d="M.45,20.2c.26-1.59.33,2.61.61.2C1,20.62.62,18.21.45,20.2Z"/><path class="cls-2" d="M100.8,164.35v-.68C100.79,164,100.79,164.19,100.8,164.35Z"/><path class="cls-2" d="M1.06,20.4h0l0-.25Z"/><path class="cls-2" d="M88.33,0a1.16,1.16,0,0,0,.36.12S88.6.06,88.33,0Z"/><path class="cls-2" d="M102.42,14.31l0-.66A5.64,5.64,0,0,0,102.42,14.31Z"/><path class="cls-2" d="M74.63.4a5.69,5.69,0,0,0-1,0l.15,0A2.26,2.26,0,0,1,74.63.4Z"/><path class="cls-2" d="M60.37.4l.26,0h.45Z"/><path class="cls-2" d="M39,180a2.61,2.61,0,0,1,.66.25C39.42,180.07,41.51,180,39,180Z"/><path class="cls-2" d="M100.92,164.78a.79.79,0,0,1-.12-.43l0,.48S100.9,164.88,100.92,164.78Z"/><path class="cls-2" d="M74.05,2.61l-2.27,0C72.42,2.6,73.24,2.61,74.05,2.61Z"/><path class="cls-2" d="M2.76,116.24l0,.52A2.62,2.62,0,0,0,2.76,116.24Z"/><path class="cls-2" d="M65.06,2.61a10.09,10.09,0,0,0-1.28-.19,1.38,1.38,0,0,0-.26.07Z"/><path class="cls-2" d="M39.64,180.27Z"/><path class="cls-2" d="M54.57,179.6c-2.16,0-1,.37-1.48.58-2.57.1-1.19-.27-2.07-.46-1.61.1-2.84.43-4,.42-.09-.06-.32-.08,0-.16-1.7.29-5,0-7,.38a.65.65,0,0,1-.26-.09c.32.19.37.38.31.51-1,0-1.8.23-2.17,0a2,2,0,0,0,.92-.16l-1,.1c-.91-.35,1.39-.12,1.39-.38-2,.12-4.29.4-5.8.31-.32-.34,3.54-.12,1.52-.42l2.34.13c-1.79-.54,1.43,0-.22-.54-3.08-.1-3.45.18-6.53.08-.69.19.23.28-.46.47-4.38.33-3.45-.86-6.66-.41a5.92,5.92,0,0,1-3.45.43l.78-.38c-3,0-1.7.55-4.83.29.55-.15,2.35-.13,1.89-.17-2-.3-1.43.22-3,.22l-.32-.34c-3.18.05-6.68.3-10.21.36.2-.1.8-.21,0-.31l-1.4,0v-.45c0-.43,0-.87,0-1.3,0-1,0-1.93.07-2.88.08-1.91.15-3.79.23-5.54l-.3-1.64c0-.38.13-.7.19-.29.11-1.67-.18-.09-.3-.89,0-1,.17-1.26.26-.65A77.2,77.2,0,0,1,2.65,155l.08.61c.12-2.42-.6-2.73-.33-5l.06.43c.12-5.25-.15-11.05.3-15.05-.42-.77.19-5.2-.4-5.54.29-3,.39-2.13.59-6.35,0-1.13-.37-1.68-.43-3.08l.31,0-.32-1.89.36-1-.07-1.31c0,.52-.14,1.11-.23,1a17.52,17.52,0,0,1,.37-5l-.26-4.83a6.36,6.36,0,0,1,.25,1.56c-.32-2.58.32-.47,0-2.83-.07.31-.18-.18-.24-.23a42.52,42.52,0,0,0,.11-5.84L3,101c0-3.58-.1-7.55-.1-11.58-.1,1.45-.47,1.12-.5-.06l.32-.48c-.2-.76-.12,1.24-.37-.33,0-1.5.37-1,.48-.14l-.11-1.83c.09-.11.15.32.27.43-.2-.75.33-3.15,0-4.23l.09-.1c0-4-.11-5.85-.12-9.12-.28-.06-.22-1.35-.45-2.32.09-2.41.31-5.08.29-8-.14-2-.24-.59-.41-1.51.26-.15.23-3,.42-1.54,0-3.48-.05-4.45-.26-8.85-.11.48-.15,1-.24.74,0-.8.11-1.82.23-1.7l0,.21c-.39-4.94.75-11.4.21-15.34l0,.22-.28-4.08c0-1.87.19,1.13.35-.26-.43-4.4.06-6.95-.22-10.58.75-2.8-.06-9.95.43-13.74L2.93,7c-.18-1,.1-1.18.14-1.9-.14.1-.16,1.06-.26.45,0-1.06,0-2.13-.05-3.23l4.13.06,5.32.13,10.64.29c3.11.05,1.77-.92,5.69-.5l-1.12.33c6.28-.39,12.83,0,19-.32a2.64,2.64,0,0,1-1,.18,15.27,15.27,0,0,0,4.81-.19c1,0,.23.18.81.28,1.31.14,3.27-.31,4-.07.12,0-.36.08-.6.1.85-.12,4,0,3.14-.25,2.3.13,4.4-.12,6.24,0,1.2-.31,4,.15,4.33-.29-.17.45,4,.37,5.5.15-.49.14,1.26.14.69.33,1.66,0,3.19-.09,2.9-.32,3.06.54,6.16-.43,7.88.26C90,2.31,94.59,2.14,99,2c-.16.45-4.92,0-4.72.51,1.44-.06,2.67-.15,3.84-.23l1.72-.12.83-.09c0,.23,0,.44,0,.76,0,.58,0,1.2,0,1.86-.06,1.08-.2-.62-.27-1,.18,4.21,0,8.14.2,11.89a3,3,0,0,1-.12-.8c0,.74-.07,1.72.14,1.63l-.06-.72c.3-1.17.62,2.94.78,3.07-.59-1.25-.15,3.7-.89,1.71,0,.49.14,1.1.27,1,0,.73-.12.95-.27.22.11,2.65.33,1.71.32,4.11-.1,0-.14-.5-.25-.74a20.18,20.18,0,0,1,.3,4.45c-.06-.12-.14.12-.14-.49,0,3.48.52,5.93.33,9.75-.43-1.13-.14,1.3-.51,1.5l.11,2,.18-.82c0,1.79.27,3.38.14,4.93l-.15-1.34.07,3.37.14-1.91c.19,1.82.47-.19.37,2.2,0-.48,0,1.8-.22,2.74h0a14,14,0,0,1,.16,3.13c-.12.35-.42-.27-.5,0,.32.88.09,4.21.42,5.32-.08-.37-.27-.39-.31-.27l.25.74c-.08.83-.12,1-.27.82,0,2.5.47-.8.27,2.18a4,4,0,0,1-.1-.61c-.11,3,.16,5.77,0,8.51-.37.81-.09-2.4-.4-1.47.06,4,.45,8.19.36,12l0-.72c.53.54-.26,2.86,0,4.79,0-.47-.3-.62-.24-.49-.08,2.62.13,5.36.3,9.33l-.14-.49c-.12,1.54-.07,4.07-.13,5.73.14.5.11,1.45.31.87-.77,5.15.42,9.82-.23,14.38,0-.54-.12-1.3-.12-.86l.13,3.89c.23-.31.14-.51.32-1.33a12.41,12.41,0,0,1,.24,2.55c-.15-1.75-.37,0-.5.77.07-.12.15.14.22.07-.41,2,.47.34.19,3.12l-.12-.15c.06,1,.22,2,.19,3.11-.27.47-.13-1.1-.35-1.17,0,1.57.51,3.1.24,4.52-.07-.67-.07-1.63-.15-2.29a12.48,12.48,0,0,0-.28,2.88v-.12l-.14,2.66.09-.67c.69,2,.13,4,.58,6.65-.43-2.57-.25-.42-.55-.62-.09.68-.18,1.71-.26,1.41.24,1.25-.2,2.09.16,3.86-.1.08,0,1.34-.25,1.06.07,1.63.17-.39.29-.25.33,2.51-.41,5.9,0,9.51.19,3.12.52,3.69.68,6.58-.15,1-.35-.8-.35-.8a23.11,23.11,0,0,0,0,4.24c-.08-.3-.16,0-.27.46,0,1.19.36.8.22,2.37a5.36,5.36,0,0,1-.4-1.19c.09,1.4.28,2.79.36,4.24-.17.38-.25-.88-.37-1.39a25.06,25.06,0,0,0,.43,4.73l.09-1.05c0,.6-.23.31-.28-.13-.21-1.4.1-2,.19-2.09l.07,1c.57-1.06-.09-4.15-.06-6.23l.41.86-.34-2.13c.11-.45.34-.76.4.26.21-1.49-.15-1.32.08-2.6,0-.14.06-.08.08.05l-.13-1.45c.09.28.3-.25.24.65.24-2.62-.32-4.22,0-5.2l0,.21c-.14-3.63-.3-.35-.66-3.07l.75-1.83-.3-.36c0-.37,0-1.11.15-1-.2-1.39-.13.24-.33-.57.28-1.8-.13-5,.36-5.37-.23-.65-.18,1.72-.34-.2.52-.55-.09-2.23.15-3.88.27.51.13,2.07.37.42-.46-1,.1-3.2,0-4.59-.36-.07-.15-3-.27-5.35.12.14.2-4.39.33-6.56l.06.07c-.37-.42-.3-2.66-.37-4.29.22.07.3.36.4,1.24v-1.53a6.9,6.9,0,0,1-.22-1.83l.27.38c0-2-.32-4.1-.14-6.72-.25-.15-.71,2.09-.88-.69.14-.1.37-.2.43.52a7,7,0,0,1-.06-1.32l.24,1.1c.1-1.19-.2-.62-.18-1.57.2,0,.15-.71.3-.57a7.83,7.83,0,0,0,0,1.19,13.75,13.75,0,0,1,.3-2.8c-.11.09-.27,0-.29-.79,0-2,.24-.7.34-1.89-.14-.49,0-1.79-.29-1.82a1.81,1.81,0,0,1,.22-.94c-.13-1.06,0-4.93-.35-3.74l0,.27V97h0c-.29-3.46.17-7.18,0-10.61h.1c-.11-2-.07-4.56-.28-6,0-.61.18-1.43.3-1.17a22.51,22.51,0,0,1,0-4c.17,1.57.15-.55.12,1.61a20.37,20.37,0,0,0,0-4.68c.25.75.32-1.53.24-2.49l-.18,1.42c0-1.09,0-2,0-3l.33.52c.4-4.16-.69-7.5,0-10.67-.23-1.1-.17,2.26-.44,1.27,0-1.91.52-3.9.53-4.5.18-2.62-.49-2.45-.36-5.19-.12.35-.44.68-.55-1.37s.5-2.35.59-1.15c0,.46,0,.69-.07.67,0,.61.1,1.43.23.67l-.12-.25c.12-1,.11-3.59.3-3-.11-1.44-.19-.62-.26.46.18-2.46,0-3.84.13-6.37-.07.4-.21.77-.21.37.15-3.71-.22-1.63-.28-4.14.19-1.43.44.51.28-2,.13-1.55.32-.33.42.29a34.35,34.35,0,0,1,.19-5.63l.09,1.22c0-.73,0-1.32,0-1.93l-.24.69c0-.71,0-1.31.14-1.3-.15-.73-.39.56-.6-.89.12-.95-.13-2.9.18-3.23-.11,3,.32-.33.37,2.2a13.39,13.39,0,0,1,0-1.8c0-.1.07.11.09.3.28-2.86-.36-1.31-.35-4.28.18.38.34-.69.3-1.17,0,1.2-.3.57-.43-.52a21.75,21.75,0,0,0-.09-3.06l-.07,1.13a12,12,0,0,1-.21-2.66c.14-.11.1,1.21.16.73-.31-1.47.32-3.32.11-5.37.12-1,.34-.09.42-.93a9.86,9.86,0,0,1,0-2.41c0-.32.07-.64.08-1,0-.2,0-.41,0-.65s0-.76,0-1.22c-.24,1.33-.18,1.27-.41-1.21l.08,2.72.09,2-.35-2.54c0,1.19.15,2.52.11,3.24-.2-1.21-.14-1.09-.34-.51a7.25,7.25,0,0,0,.09-2.13c0-.4-.05-.81-.08-1.23s0-.94,0-1.44L101.1.72c.12-.2.26-.39.4-.59l-.87,0-.77,0h-1c-.67,0-1.32.06-2,.1a40.24,40.24,0,0,1-4.7.12l1.19.11a25.52,25.52,0,0,1-3.49.13c.11-.2-.64-.27-1.15-.4.06.15-2.71,0-3,.38L84,.24c-3-.1-3.41.57-6.28.5.87-.22-.44-.36,1.48-.51-1,0-1.82,0-1.83.1C76.8.21,74.7.6,73.82.41A3.92,3.92,0,0,1,72.2.69c-.12,0,0-.1,0-.1s-1.69.13-.75.35C68.51.32,63.2,1,60.63.45,58.54.52,56,.58,54.11.6c.13-.06,0-.1.37-.08-2.62-.18-1.61.57-4.6.36-1.52-.32,1.59-.17.64-.29-.42-.65-3.6.09-5.61-.29l.49,0c-1.54-.22-3.75.25-6.26.2,0,0,.13-.06,0-.1A64.81,64.81,0,0,1,31.79.9c.75-.26,1.09-.14.63-.4-1.08,0,.32.42-1.84.49-.7-.14-2.26-.26-2.46-.54h2c-1-.36-2.63,0-3.7,0l.13-.16c-3.12.05-3.16.45-6.51.42l.34.12c-1.83.38-1.53-.22-3.36.07L16.5.44c-1.21.1-4.24.38-6.41.46C11.32.6,13.86.45,15.43.28a32.13,32.13,0,0,0-4.7.23A8.27,8.27,0,0,1,12.3.43,29.2,29.2,0,0,1,6.51.89C6.64.64,6,.53,5.07.48c-.48,0-1,0-1.63,0L.82.4l0,1.39c0,.22,0,.45,0,.66v.32L.73,3A5.74,5.74,0,0,1,.52,4.27C.8,8.5.4,12.65.44,17.57c.6-1.74,0,1.44.63,1.14a8.54,8.54,0,0,1,0,1.68L.69,23.87c-.17.82-.13-1.09-.27-1,0,2.51-.26,1.06-.42,2.72.22-.34.31.87.23,2.3l.28-2c.33,3.51-.51,3-.19,6.57L.13,31.34c.11,1.81,0,6.69.49,8.47-.07.32-.24.74-.29-.05-.07,4.33.53,9.65.22,13L.4,52.45a8.89,8.89,0,0,1,.13,2.42c-.06,0-.14-.33-.15.05a19.57,19.57,0,0,1,.17,3.22l-.17-.92c-.19,4.23.41,6.5.52,10-.44,0-.59,3.32-.66,5l-.06-.06c-.06,4.93.36,8.37.54,12.93C.24,87.94.52,94.7.25,99.25c.08-.69.34.12.39.92-.09,1.07.3,3-.1,2.79v-.38c-.4.8-.3,3-.31,4.71l.53.28c-.77,4.48.28,11.74-.4,14.19.13,1.08.13,2.42.26,3.49l-.28,0c-.08,3-.11,4.49,0,8.19l-.2-.75c0,2.09.82,2.64.84,4.56l-.43.58c0,3.65-.36,7.34,0,10.94-.06-.06-.18-.17-.2-.76,0,1.72-.29,6.64.29,6-.37,0,0,3.76.13,5.73l-.27-.31a16.22,16.22,0,0,1,.55,4c0,.55-.23.49-.15-.24-.15,1.83.26,1.42.11,3.64L.81,166a8.17,8.17,0,0,0,.28,2.77,10.94,10.94,0,0,1-.32,3.85,5.59,5.59,0,0,1,.29,2.4c-.1.15-.16-.25-.18-.46a27.19,27.19,0,0,0,0,3.69c0,.53.07.93.08,1.52A18.87,18.87,0,0,1,1,181.87l.3,0c0,.1.16.14.42.17H.76c0-1.46,0-2.74,0-3.63a8.2,8.2,0,0,1,0-1c-.25,0-.3,2-.65.42.05.43.12,1,.19,1.52l0,.24,0,.39,0,.76c0,.49.06,1,.1,1.49.93-.05,1.81-.09,2.63-.11a14.78,14.78,0,0,1,1.5,0,1.14,1.14,0,0,1,.26.09l-.21,0a8.38,8.38,0,0,0,1.25,0c.63,0,1,.07,1.63.07a15,15,0,0,0,3.33.13c-.08-.28,1.24-.24,0-.47.16,0-.19,0-.86,0l-.43,0,.07,0-2.51,0A8.3,8.3,0,0,1,9.94,182c.52-.18,1.09-.36,1.41-.45,1.38.39,4,.6,4.41.84,3.08-.15,7.26-.1,9.2-.63a2.27,2.27,0,0,1,1.33.24,12.42,12.42,0,0,0-1.38.12c1.75-.14,5.19-.06,5.6-.42,2.21.16-1.24.34,1.8.27l-.41.12c6,.59,9.69-.94,16.31-.19a2.3,2.3,0,0,1-.78-.13c7.54.34,15.53-.31,23,.22a12.11,12.11,0,0,0,3.64-.31l.46.3,2.2-.35c3.13-.25,5.42.75,9.38.26l-.51-.2c1.43,0,4.51-.12,4.27.11a1.85,1.85,0,0,1,1-.1l0,.16,3.49-.27c2.71.11-.42.62,3.53.65,1.47-.06,4.19-.46,3.64-.56s-1.52-.1-1.56-.26l1.34-.08c.24-.47,1.28-.94-2-1.27l-2.3.29-.74-.23h1.93a6.12,6.12,0,0,0-2.57.1,2.36,2.36,0,0,0-1-.25l-2.26.45c-.27-.19,1-.37-.5-.47-1.06.21,1,.41-.74.55-1.1-.21-.78-.39-2.07-.2-.18-.12.09-.2.6-.25a30,30,0,0,0-3.63.3c-1.15-.26-3.88.07-3.77-.37a18.08,18.08,0,0,1-3.08.37c1.93-.53-3.95,0-3.44-.6-1.43.47-5.15.21-7.68.47a2.29,2.29,0,0,1,.64-.09,25.1,25.1,0,0,1-2.75-.27c-.18.39-2.4.48-3.59.72-1.75-.37,1.06-.46.51-.82.09.32-3,.32-2.44.58-1.33-.23-1.15-.11-1.84-.44-.23.49-1.24.09-2.34.39-1.93-.24-.5-.46-2.62-.31C52.68,179.78,54.57,179.6,54.57,179.6Zm-50.43.85h0l1,0Zm-1.78-1c0,.28,0,.62,0,1h.07c0,.06-.08.13-.24.16a.57.57,0,0,1,0-.18C2.22,180.52,2.28,179.9,2.36,179.48Zm6.5,2.92a2,2,0,0,1-1-.07l1.18,0,.08,0A.57.57,0,0,1,8.86,182.4Z"/><path class="cls-2" d="M10.07,182l.27,0-.4-.07-.23.09Z"/><path class="cls-2" d="M102,96.92v-.09a.78.78,0,0,1,0,.19A.51.51,0,0,1,102,96.92Z"/><polygon class="cls-2" points="2.9 120.96 2.83 120.97 2.89 121.34 2.9 120.96"/><path class="cls-2" d="M101.07,120.26a1.18,1.18,0,0,0-.07.31A1.27,1.27,0,0,0,101.07,120.26Z"/><path class="cls-2" d="M101,130.35l-.1,1.42C101,131.15,101,130.71,101,130.35Z"/><path class="cls-2" d="M100.87,138.1a.33.33,0,0,0,.12.15v0Z"/><path class="cls-2" d="M100.54,14.84v-.3C100.47,13.84,100.49,14.32,100.54,14.84Z"/><path class="cls-2" d="M101.19,51.52c0-.39-.1-.77-.13-1.18C101,51,101,51.5,101.19,51.52Z"/><path class="cls-2" d="M74.3,2.62h0Z"/><path class="cls-2" d="M101.07,48.64a9.7,9.7,0,0,0,0,1.7A16.05,16.05,0,0,0,101.07,48.64Z"/><path class="cls-2" d="M100.74,171.7v.37s0,0,0,.05Z"/><path class="cls-2" d="M100.77,172.12l0,.41A1,1,0,0,0,100.77,172.12Z"/><path class="cls-2" d="M100.88,173.4l-.07-.87A2.89,2.89,0,0,0,100.88,173.4Z"/><path class="cls-2" d="M100.87,161.43l-.1-.11C100.79,161.38,100.82,161.42,100.87,161.43Z"/><path class="cls-2" d="M100.84,158.32a26.54,26.54,0,0,0-.15,2.9l.08.1C100.62,160.83,101,159,100.84,158.32Z"/><path class="cls-2" d="M102.1,145.3l-.08,2.61c.11-.45.25-1,.28.13C102.62,144.75,102.06,148.72,102.1,145.3Z"/><path class="cls-2" d="M102.26,137.2c0,1.4.16,0,.22.05C102.38,136.36,102.35,136.15,102.26,137.2Z"/><path class="cls-2" d="M102.26,78.64l.26.14C102.48,77.7,102.42,78.77,102.26,78.64Z"/><polygon class="cls-2" points="100.94 67.45 100.78 68.5 101.01 69 100.94 67.45"/><polygon class="cls-2" points="102.76 60.83 102.8 61.31 102.7 59.5 102.76 60.83"/><path class="cls-2" d="M62.9.15l.33.31C64,.41,64.12.05,62.9.15Z"/><path class="cls-2" d="M20.45.47a5.84,5.84,0,0,0-2.4-.1C19,.39,20,.51,20.45.47Z"/><polygon class="cls-2" points="0.37 109.7 0.27 108.85 0.36 110.46 0.37 109.7"/><path class="cls-3" d="M96,176.2c.09.27.28.12.24-.63l-.33-.54Z"/><path class="cls-3" d="M96.57,171.13c-.17-.89-.45-1.91-.75-1.34.32.88.18,1.09.56,2,0,.75-.1,1.32-.23,1.19.09.26-.07,1.17.14,1.58a8.63,8.63,0,0,0,0-3.53C96.42,170.79,96.5,171.06,96.57,171.13Z"/><path class="cls-3" d="M97.08,97.38l0,.48A3.08,3.08,0,0,0,97.08,97.38Z"/><path class="cls-3" d="M97.26,51.69c0,.35,0,.5.07.51C97.31,51.88,97.29,51.62,97.26,51.69Z"/><path class="cls-3" d="M97.63,43.89l0,.46A1.49,1.49,0,0,0,97.63,43.89Z"/><path class="cls-3" d="M97.08,97.38l.11-1.22C97.08,96.08,97.11,96.79,97.08,97.38Z"/><path class="cls-3" d="M95.77,161a4,4,0,0,0,.08.66l0-.62Z"/><path class="cls-3" d="M97.35,117.53v.37a2.08,2.08,0,0,0,.13.3Z"/><path class="cls-3" d="M97.4,133c0-.35-.27-.47-.39-.6a1.76,1.76,0,0,1,.19.76S97.32,133.1,97.4,133Z"/><path class="cls-3" d="M96.91,157.49l0,.44Z"/><path class="cls-3" d="M97.41,106.46a.26.26,0,0,0,.1-.14S97.44,106.38,97.41,106.46Z"/><path class="cls-3" d="M78.7,174.88s0,0,0,.05S78.82,174.88,78.7,174.88Z"/><path class="cls-3" d="M96.62,176.27l-.25,0a.3.3,0,0,0-.05.16Z"/><path class="cls-3" d="M98,29.62v.06C98,30.06,98,29.84,98,29.62Z"/><path class="cls-3" d="M5.45,23.85c.26-1.49.33,2.41.61.18C6,24.24,5.62,22,5.45,23.85Z"/><path class="cls-3" d="M95.8,160.56v-.64C95.79,160.21,95.79,160.41,95.8,160.56Z"/><path class="cls-3" d="M6.06,24h0l0-.23Z"/><path class="cls-3" d="M87.14,5a1,1,0,0,0,.33.12S87.39,5.06,87.14,5Z"/><path class="cls-3" d="M97.42,21.23l0-.61A4.88,4.88,0,0,0,97.42,21.23Z"/><path class="cls-3" d="M74.41,5.4a4.86,4.86,0,0,0-.89,0l.14,0A2,2,0,0,1,74.41,5.4Z"/><path class="cls-3" d="M61.17,5.4l.24,0h.42Z"/><path class="cls-3" d="M38.45,175a2.15,2.15,0,0,1,.61.25C38.86,175.07,40.8,175,38.45,175Z"/><path class="cls-3" d="M95.92,161a.66.66,0,0,1-.12-.39l0,.44S95.9,161,95.92,161Z"/><path class="cls-3" d="M73.88,7.61l-2.11,0C72.36,7.6,73.12,7.61,73.88,7.61Z"/><path class="cls-3" d="M7.76,113l0,.49A2.31,2.31,0,0,0,7.76,113Z"/><path class="cls-3" d="M65.53,7.61a9,9,0,0,0-1.19-.19,1.37,1.37,0,0,0-.24.07Z"/><path class="cls-3" d="M39.07,175.27h0Z"/><path class="cls-3" d="M52.93,174.6c-2,0-.94.37-1.37.58-2.39.1-1.11-.27-1.92-.46-1.5.1-2.64.43-3.76.42-.08-.06-.3-.08,0-.16-1.58.29-4.69,0-6.53.38a.52.52,0,0,1-.24-.09c.3.19.34.38.28.51-.9,0-1.67.23-2,0a1.86,1.86,0,0,0,.86-.16l-.94.1c-.85-.35,1.28-.12,1.28-.38a52,52,0,0,1-5.38.31c-.3-.34,3.29-.12,1.41-.42l2.18.13c-1.67-.54,1.32,0-.21-.54-2.86-.1-3.2.18-6.06.08-.64.19.21.28-.43.47-4.06.33-3.2-.86-6.19-.41a5.11,5.11,0,0,1-3.2.43l.73-.38c-2.77,0-1.58.55-4.49.29.52-.15,2.18-.13,1.76-.17-1.88-.3-1.33.22-2.78.22l-.3-.34c-1.4,0-2.86.09-4.37.16l-2.28.11-.57,0H8l-.56,0v-.24c.1,0,.21.1.31-.22l0-.22v-.58c0-.53,0-1.06,0-1.6,0-1.09,0-2.18,0-3.27.06-2.19.16-4.35.27-6.34l-.3-1.52c0-.36.13-.66.19-.28.11-1.55-.18-.08-.3-.82s.17-1.17.26-.61A66.46,66.46,0,0,1,7.65,149l.08.56c.12-2.24-.6-2.53-.33-4.61l.06.4c.12-4.88-.15-10.26.3-14-.42-.71.19-4.82-.4-5.14A56.6,56.6,0,0,0,8,120.3c0-1-.37-1.56-.43-2.86l.31,0-.32-1.75.36-.94-.07-1.21c0,.48-.14,1-.23.95a15.18,15.18,0,0,1,.37-4.67l-.26-4.48a5.46,5.46,0,0,1,.25,1.44c-.32-2.39.32-.43,0-2.63-.07.3-.18-.16-.24-.21a36.6,36.6,0,0,0,.11-5.42l.21.35c.05-3.32-.1-7-.1-10.74-.1,1.33-.47,1-.5-.07l.32-.44c-.2-.7-.12,1.15-.37-.3,0-1.4.37-.94.48-.14l-.11-1.7c.09-.1.15.3.27.41-.2-.7.33-2.93,0-3.94l.09-.09C8.11,78.1,8,76.4,8,73.36c-.28-.06-.22-1.25-.45-2.15.09-2.24.31-4.72.29-7.41-.14-1.89-.24-.55-.41-1.4.26-.14.23-2.83.42-1.43,0-3.24,0-4.13-.26-8.22-.11.44-.15.94-.24.69,0-.75.11-1.69.23-1.59l0,.2c-.39-4.59.75-10.59.21-14.24l0,.21-.28-3.79c0-1.75.19,1,.35-.25-.43-4.08.06-6.45-.22-9.82.75-2.6-.06-9.24.43-12.76l-.18.21c-.18-.91.1-1.1.14-1.77-.14.09-.16,1-.26.42,0-1,0-1.93,0-2.92l3.75.06,5,.13,9.88.29c2.88,0,1.64-.92,5.27-.5l-1,.33c5.83-.39,11.91,0,17.61-.32a2.31,2.31,0,0,1-.9.18,13.21,13.21,0,0,0,4.47-.19c.89,0,.21.18.75.28,1.21.14,3-.31,3.68-.07.11,0-.34.08-.56.1.78-.12,3.67,0,2.91-.25,2.14.13,4.1-.12,5.8,0,1.12-.31,3.67.15,4-.29-.15.45,3.75.37,5.1.15-.45.14,1.18.14.65.33,1.54,0,3-.09,2.69-.32,2.85.54,5.72-.43,7.32.26l6.42-.3,3.07-.11,1.45,0,.71,0v.21c-.08,0-.13,0-.17-.06a1.62,1.62,0,0,1-.44.07h-1c-.86,0-1.57.06-1.5.25l2.09-.12.22,0h.07l.13,0,.33-.07c0,.12.07.28.1.46V8l0,.36,0,.73c0,1,.05,2,0,3.23-.06,1-.2-.57-.27-.91.18,3.91,0,7.56.2,11a2.52,2.52,0,0,1-.12-.74c0,.69-.07,1.6.14,1.52l-.06-.67c.3-1.09.62,2.73.78,2.85-.59-1.17-.15,3.44-.89,1.59,0,.45.14,1,.27.91,0,.67-.12.88-.27.2.11,2.46.33,1.59.32,3.81-.1,0-.14-.45-.25-.68a17.41,17.41,0,0,1,.3,4.14c-.06-.12-.14.1-.14-.46,0,3.23.52,5.51.33,9-.43-1-.14,1.2-.51,1.39l.11,1.91.18-.77c0,1.67.27,3.15.14,4.58l-.15-1.24L95.91,53l.14-1.77c.19,1.69.47-.18.37,2,0-.45,0,1.67-.22,2.54h0a12.14,12.14,0,0,1,.16,2.91c-.12.32-.42-.26-.5,0,.32.82.09,3.91.42,4.94-.08-.34-.27-.36-.31-.24l.25.68c-.08.77-.12.89-.27.76,0,2.33.47-.74.27,2a3.21,3.21,0,0,1-.1-.56c-.11,2.77.16,5.35,0,7.9-.37.75-.09-2.23-.4-1.36.06,3.67.45,7.6.36,11.16l0-.67c.53.5-.26,2.65,0,4.45,0-.44-.3-.58-.24-.46-.08,2.43.13,5,.3,8.66l-.14-.45c-.12,1.43-.07,3.77-.13,5.32.14.46.11,1.35.31.81-.77,4.78.42,9.12-.23,13.36,0-.51-.12-1.21-.12-.81l.13,3.61c.23-.28.14-.47.32-1.23a10.8,10.8,0,0,1,.24,2.37c-.15-1.62-.37,0-.5.72.07-.12.15.12.22.06-.41,1.89.47.32.19,2.89l-.12-.14c.06,1,.22,1.86.19,2.9-.27.43-.13-1-.35-1.1,0,1.46.51,2.88.24,4.21-.07-.62-.07-1.52-.15-2.14A10.9,10.9,0,0,0,96,129v-.11l-.14,2.47.09-.62c.69,1.82.13,3.72.58,6.18-.43-2.4-.25-.4-.55-.58-.09.63-.18,1.58-.26,1.31.24,1.16-.2,1.94.16,3.58-.1.08,0,1.25-.25,1,.07,1.52.17-.35.29-.23.33,2.33-.41,5.48,0,8.84.19,2.89.52,3.42.68,6.1-.15.91-.35-.74-.35-.74a20,20,0,0,0,0,3.94c-.08-.28-.16,0-.27.43,0,1.1.36.74.22,2.19a4.66,4.66,0,0,1-.4-1.1c.09,1.3.28,2.59.36,3.94-.17.35-.25-.82-.37-1.29a21.72,21.72,0,0,0,.43,4.39l.09-1c0,.55-.23.28-.28-.13-.21-1.29.1-1.87.19-1.94l.07,1c.57-1-.09-3.86-.06-5.79l.41.81-.34-2c.11-.43.34-.71.4.24.21-1.39-.15-1.23.08-2.42,0-.13.06-.07.08.05l-.13-1.35c.09.26.3-.23.24.61.24-2.43-.32-3.92,0-4.84l0,.21c-.14-3.37-.3-.33-.66-2.86l.75-1.7-.3-.33c0-.35,0-1,.15-.91-.2-1.29-.13.22-.33-.53.28-1.67-.13-4.61.36-5-.23-.6-.18,1.6-.34-.19.52-.51-.09-2.06.15-3.59.27.47.13,1.92.37.39-.46-.93.1-3,0-4.27-.36-.06-.15-2.8-.27-5,.12.14.2-4.07.33-6.08l.06.06c-.37-.39-.3-2.47-.37-4,.22.06.3.33.4,1.15V117.9a6,6,0,0,1-.22-1.7l.27.35c0-1.89-.32-3.81-.14-6.24-.25-.14-.71,1.93-.88-.64.14-.09.37-.19.43.48a6.13,6.13,0,0,1-.06-1.23l.24,1c.1-1.11-.2-.58-.18-1.47.2,0,.15-.65.3-.52a6.81,6.81,0,0,0,0,1.11,12,12,0,0,1,.3-2.61c-.11.09-.27,0-.29-.73,0-1.89.24-.65.34-1.75-.14-.46,0-1.67-.29-1.7a1.62,1.62,0,0,1,.22-.87c-.13-1,0-4.57-.35-3.47l0,.25V98h0c-.29-3.21.17-6.66,0-9.85h.1c-.11-1.9-.07-4.23-.28-5.59,0-.56.18-1.33.3-1.09a19.36,19.36,0,0,1,0-3.71c.17,1.46.15-.51.12,1.49a17.53,17.53,0,0,0,0-4.34c.25.69.32-1.42.24-2.32L97.3,74c0-1,0-1.9,0-2.79l.33.48c.4-3.86-.69-7,0-9.91-.23-1-.17,2.1-.44,1.19,0-1.78.52-3.63.53-4.19.18-2.43-.49-2.27-.36-4.82-.12.33-.44.64-.55-1.27s.5-2.18.59-1.06c0,.43,0,.63-.07.61,0,.58.1,1.33.23.63l-.12-.23c.12-.88.11-3.33.3-2.76-.11-1.34-.19-.57-.26.42.18-2.28,0-3.56.13-5.91-.07.38-.21.72-.21.35.15-3.45-.22-1.52-.28-3.85.19-1.33.44.47.28-1.88.13-1.43.32-.3.42.27A29.54,29.54,0,0,1,98,34l.09,1.13c0-.68,0-1.23,0-1.79l-.24.64c0-.66,0-1.22.14-1.21-.15-.68-.39.52-.6-.83.12-.88-.13-2.69.18-3-.11,2.77.32-.31.37,2a11.52,11.52,0,0,1,0-1.67c0-.1.07.1.09.28.28-2.66-.36-1.22-.35-4,.18.35.34-.63.3-1.08,0,1.11-.3.53-.43-.49a18.71,18.71,0,0,0-.09-2.84l-.07,1.05a10.46,10.46,0,0,1-.21-2.47c.14-.1.1,1.12.16.68-.31-1.37.32-3.09.11-5,.12-.88.34-.09.42-.86-.23-2.14.24-2.31,0-4.56-.24.65-.18.76-.41-.82L97.64,13l-.35-2.37c0,1.12.15,2.35.11,3-.2-1.13-.14-1-.34-.48.36-1.52-.2-3,0-4.78l.59.05,0-.56,0-.93c0-.62,0-1.23,0-1.83l-2.27.08-.53,0-.34,0-.71,0a28.15,28.15,0,0,1-3.23,0l1.11.11a22.08,22.08,0,0,1-3.24.13c.1-.2-.59-.27-1.07-.4.06.15-2.51,0-2.82.38l-1.54-.26c-2.77-.1-3.17.57-5.83.5.8-.22-.41-.36,1.37-.51-.89,0-1.69,0-1.7.1-.52-.12-2.47.27-3.29.08a3.4,3.4,0,0,1-1.5.28c-.11,0,0-.1,0-.1s-1.56.13-.69.35c-2.74-.62-7.67,0-10.06-.49-1.94.07-4.28.13-6,.15.12-.06,0-.1.34-.08-2.43-.18-1.49.57-4.26.36-1.42-.32,1.47-.17.58-.29-.38-.65-3.34.09-5.2-.29l.45,0c-1.43-.22-3.48.25-5.81.2,0,0,.12-.06,0-.1a55.92,55.92,0,0,1-6.85.54c.7-.26,1-.14.59-.4-1,0,.3.42-1.71.49-.65-.14-2.09-.26-2.29-.54h1.9c-1-.36-2.45,0-3.45-.05l.13-.16c-2.9,0-2.94.45-6.05.42l.32.12c-1.7.38-1.43-.22-3.12.07l-.52-.4c-1.12.1-3.93.38-5.94.46a49.09,49.09,0,0,1,5-.62,27.73,27.73,0,0,0-4.36.23,7.16,7.16,0,0,1,1.46-.08,25.3,25.3,0,0,1-5.38.46c.13-.25-.45-.36-1.33-.41-.45,0-1,0-1.52-.05l-2.49,0c0,.87,0,1.75-.09,2.46a4.94,4.94,0,0,1-.21,1.19C5.8,13,5.4,16.83,5.44,21.4c.6-1.62,0,1.34.63,1.06a7.39,7.39,0,0,1,0,1.56l-.37,3.23c-.17.76-.13-1-.27-.91,0,2.33-.26,1-.42,2.52.22-.32.31.81.23,2.13l.28-1.87c.33,3.26-.51,2.82-.19,6.1l-.19-1c.11,1.69,0,6.22.49,7.87-.07.3-.24.69-.29,0-.07,4,.53,9,.22,12.09l-.15-.3A7.69,7.69,0,0,1,5.53,56c-.06,0-.14-.31-.15,0a16.92,16.92,0,0,1,.17,3l-.17-.85c-.19,3.93.41,6,.52,9.32-.44,0-.59,3.09-.66,4.63l-.06-.06c-.06,4.58.36,7.77.54,12-.48,2.63-.2,8.9-.47,13.13.08-.65.34.1.39.86-.09,1,.3,2.74-.1,2.58v-.35c-.4.74-.3,2.78-.31,4.37l.53.26c-.77,4.17.28,10.91-.4,13.18.13,1,.13,2.25.26,3.24l-.28,0c-.08,2.78-.11,4.17,0,7.61l-.2-.7c0,1.94.82,2.45.84,4.24l-.43.54c0,3.38-.36,6.81,0,10.15-.06-.05-.18-.15-.2-.7,0,1.59-.29,6.16.29,5.58-.37,0,0,3.5.13,5.32l-.27-.28A14.07,14.07,0,0,1,6,156.85c0,.51-.23.44-.15-.23-.15,1.7.26,1.32.11,3.38l-.18-.76a7,7,0,0,0,.28,2.57,9.53,9.53,0,0,1-.32,3.58,4.83,4.83,0,0,1,.29,2.23c-.1.13-.16-.24-.18-.43-.19,2.93.32,4.35,0,6.37-.1,0-.14.17-.17.34,0-2.33,0-4.2,0-4-.25,0-.3,1.88-.65.39.09.75.25,1.77.36,2.83l.08.8,0,.4,0,.46c0,.84,0,1.62,0,2.39v.05a.93.93,0,0,1,.28.08l-.35,0c.69,0,1.36,0,2,0l1.05.05.75,0a12.9,12.9,0,0,0,3.09.13c-.08-.28,1.15-.24,0-.47.15,0-.18,0-.8,0l-.4,0,.06,0-2.33,0a7.19,7.19,0,0,1,2.55-.11c.48-.18,1-.36,1.31-.45,1.28.39,3.75.6,4.1.84,2.86-.15,6.73-.1,8.53-.63a2,2,0,0,1,1.24.24,10.77,10.77,0,0,0-1.28.12c1.62-.14,4.81-.06,5.2-.42,2.05.16-1.15.34,1.67.27l-.38.12c5.54.59,9-.94,15.14-.19a2,2,0,0,1-.72-.13c7,.34,14.42-.31,21.33.22a10.48,10.48,0,0,0,3.38-.31l.42.3,2-.35c2.91-.25,5,.75,8.71.26l-.47-.2c1.32,0,4.18-.12,4,.11a1.62,1.62,0,0,1,.95-.1l0,.16,3.25-.27c2.51.11-.4.62,3.28.65,1.36-.06,3.88-.46,3.37-.56s-1.41-.1-1.45-.26l1.25-.08c.23-.47,1.19-.94-1.88-1.27l-2.13.29-.69-.23h1.8a5.29,5.29,0,0,0-2.39.1,2.08,2.08,0,0,0-.9-.25l-2.09.45c-.26-.19.94-.37-.47-.47-1,.21.94.41-.68.55-1-.21-.73-.39-1.93-.2-.17-.12.09-.2.56-.25a26.05,26.05,0,0,0-3.37.3c-1.07-.26-3.6.07-3.5-.37a15.66,15.66,0,0,1-2.86.37c1.79-.53-3.67,0-3.19-.6-1.33.47-4.79.21-7.14.47a2,2,0,0,1,.6-.09,21.92,21.92,0,0,1-2.56-.27c-.17.39-2.22.48-3.33.72-1.62-.37,1-.46.47-.82.08.32-2.81.32-2.26.58-1.24-.23-1.07-.11-1.71-.44-.21.49-1.15.09-2.18.39-1.79-.24-.46-.46-2.43-.31C51.18,174.78,52.93,174.6,52.93,174.6Zm-45.56.57h0v.27h0Zm0-3.42v1.7c-.1.14-.2,0-.19-.4C7.22,173.26,7.28,172.33,7.36,171.75Zm3.13,5.65c-.63,0-.83,0-.92-.07l1.09,0,.07,0A.46.46,0,0,1,10.49,177.4Z"/><path class="cls-3" d="M11.61,177l.25,0-.37-.07-.22.09Z"/><path class="cls-3" d="M97,97.94v-.08A.61.61,0,0,1,97,98Z"/><polygon class="cls-3" points="7.9 117.41 7.83 117.41 7.89 117.76 7.9 117.41"/><path class="cls-3" d="M96.07,119.62a.87.87,0,0,0-.07.28A1,1,0,0,0,96.07,119.62Z"/><path class="cls-3" d="M96,129l-.1,1.32C96,129.73,96,129.31,96,129Z"/><path class="cls-3" d="M95.87,136.18a.35.35,0,0,0,.12.14v0Z"/><path class="cls-3" d="M95.54,21.72v-.27C95.47,20.79,95.49,21.24,95.54,21.72Z"/><path class="cls-3" d="M96.19,55.78c0-.36-.1-.71-.13-1.09C96,55.29,96,55.77,96.19,55.78Z"/><path class="cls-3" d="M74.11,7.62h0Z"/><path class="cls-3" d="M96.07,53.1a8.48,8.48,0,0,0,0,1.59A14,14,0,0,0,96.07,53.1Z"/><path class="cls-3" d="M95.74,167.38v.34s0,0,0,0Z"/><path class="cls-3" d="M95.77,167.76l0,.39A1,1,0,0,0,95.77,167.76Z"/><path class="cls-3" d="M95.88,169l-.07-.81A2.49,2.49,0,0,0,95.88,169Z"/><path class="cls-3" d="M95.87,157.85l-.1-.11C95.79,157.8,95.82,157.84,95.87,157.85Z"/><path class="cls-3" d="M95.84,155a23,23,0,0,0-.15,2.7l.08.09C95.62,157.28,96,155.61,95.84,155Z"/><path class="cls-3" d="M97.1,142.86,97,145.29c.11-.42.25-1,.28.12C97.62,142.35,97.06,146,97.1,142.86Z"/><path class="cls-3" d="M97.26,135.34c0,1.3.16,0,.22,0C97.38,134.57,97.35,134.37,97.26,135.34Z"/><path class="cls-3" d="M97.26,81l.26.13C97.48,80.09,97.42,81.09,97.26,81Z"/><polygon class="cls-3" points="95.94 70.57 95.78 71.55 96.01 72.01 95.94 70.57"/><polygon class="cls-3" points="97.76 64.43 97.8 64.87 97.7 63.19 97.76 64.43"/><path class="cls-3" d="M63.53,5.15l.3.31C64.51,5.41,64.65,5.05,63.53,5.15Z"/><path class="cls-3" d="M24.1,5.47a5,5,0,0,0-2.22-.1C22.77,5.39,23.65,5.51,24.1,5.47Z"/><polygon class="cls-3" points="5.37 106.95 5.27 106.16 5.36 107.65 5.37 106.95"/></g></g></svg>