<svg width="33" height="19" viewBox="0 0 33 19" fill="none" xmlns="http://www.w3.org/2000/svg">
<path d="M14.85 13.1667H14.9809L15.0951 13.1025C15.1785 13.0556 15.2636 13.0075 15.3505 12.9584C17.4429 11.776 20.5858 10 26.4 10H32.5V12.1667H26.4C24.3484 12.1667 22.3858 12.4087 20.6141 12.7455L20.6118 12.7459C17.7649 13.3011 15.7523 14.9708 13.7242 16.6535C13.4527 16.8787 13.1809 17.1042 12.9068 17.3273C11.9738 17.9209 11.2128 18.208 10.5022 18.3516C9.77521 18.4984 9.08214 18.5 8.25 18.5H6.6C3.38814 18.5 0.786687 16.1395 0.522155 13.1667H14.85ZM6.1 10.5833H2.15V6.83333H6.1V10.5833ZM8.75 10.5833V6.83333H12.7V10.5833H8.75ZM5.45 0.5H9.4V4.25H5.45V0.5Z" stroke="black"/>
</svg>
