<svg width="30" height="24" viewBox="0 0 30 24" fill="none" xmlns="http://www.w3.org/2000/svg">
<path d="M9.43393 20.8883C13.1794 20.3913 15.622 15.5139 14.8896 9.99427C14.1572 4.47465 10.5272 0.402985 6.78175 0.899957C3.03629 1.39693 0.593711 6.27434 1.32609 11.794C2.05847 17.3136 5.68847 21.3852 9.43393 20.8883Z" stroke="black"/>
<path d="M8.10784 10.8941C8.10784 10.8941 6.77201 9.03874 6.44503 6.57447C6.11806 4.1102 6.92383 1.97071 6.92383 1.97071" stroke="black" stroke-linecap="round" stroke-linejoin="round"/>
<path d="M8.10779 10.894C8.10779 10.894 9.44362 12.7494 9.7706 15.2136C10.0976 17.6779 9.2918 19.8174 9.2918 19.8174" stroke="black" stroke-linecap="round" stroke-linejoin="round"/>
<path d="M18.2975 21.164C20.4486 22.5352 23.8305 21.077 25.8513 17.907C27.8721 14.737 27.7665 11.0555 25.6154 9.68428C23.4643 8.31303 20.0823 9.77124 18.0615 12.9413C16.0407 16.1113 16.1464 19.7927 18.2975 21.164Z" stroke="black"/>
<path d="M21.9562 15.4241C21.9562 15.4241 22.0725 13.8849 22.9747 12.4697C23.8769 11.0544 25.2231 10.2993 25.2231 10.2993" stroke="black" stroke-linecap="round" stroke-linejoin="round"/>
<path d="M21.9564 15.4238C21.9564 15.4238 21.8401 16.963 20.9379 18.3783C20.0358 19.7936 18.6895 20.5487 18.6895 20.5487" stroke="black" stroke-linecap="round" stroke-linejoin="round"/>
</svg>
