<svg width="43" height="43" viewBox="0 0 43 43" fill="none" xmlns="http://www.w3.org/2000/svg">
<path d="M38.3929 0H4.60714C2.06362 0 0 2.06362 0 4.60714V38.3929C0 40.9364 2.06362 43 4.60714 43H17.7759V28.3819H11.729V21.5H17.7759V16.2594C17.7759 10.2893 21.3272 6.9971 26.7694 6.9971C29.3705 6.9971 32.0964 7.45781 32.0964 7.45781V13.3127H29.0922C26.1359 13.3127 25.2145 15.146 25.2145 17.0272V21.5H31.8181L30.7623 28.3819H25.2145V43H38.3929C40.9364 43 43 40.9364 43 38.3929V4.60714C43 2.06362 40.9364 0 38.3929 0Z" fill="black"/>
</svg>
