<svg width="43" height="43" viewBox="0 0 43 43" fill="none" xmlns="http://www.w3.org/2000/svg">
<path d="M21.5048 10.4753C15.4037 10.4753 10.4826 15.3976 10.4826 21.5C10.4826 27.6024 15.4037 32.5247 21.5048 32.5247C27.6059 32.5247 32.527 27.6024 32.527 21.5C32.527 15.3976 27.6059 10.4753 21.5048 10.4753ZM21.5048 28.6675C17.5621 28.6675 14.3389 25.4531 14.3389 21.5C14.3389 17.5469 17.5525 14.3325 21.5048 14.3325C25.4571 14.3325 28.6707 17.5469 28.6707 21.5C28.6707 25.4531 25.4475 28.6675 21.5048 28.6675ZM35.5487 10.0244C35.5487 11.454 34.3976 12.5958 32.9779 12.5958C31.5485 12.5958 30.407 11.4444 30.407 10.0244C30.407 8.60432 31.5581 7.45292 32.9779 7.45292C34.3976 7.45292 35.5487 8.60432 35.5487 10.0244ZM42.8489 12.6342C42.6858 9.18961 41.8992 6.1384 39.3763 3.62451C36.863 1.11062 33.8124 0.323831 30.3686 0.151121C26.8192 -0.0503738 16.1808 -0.0503738 12.6314 0.151121C9.19716 0.314236 6.14663 1.10103 3.6237 3.61492C1.10078 6.12881 0.323759 9.18002 0.151088 12.6246C-0.0503625 16.1748 -0.0503625 26.8156 0.151088 30.3658C0.314166 33.8104 1.10078 36.8616 3.6237 39.3755C6.14663 41.8894 9.18756 42.6762 12.6314 42.8489C16.1808 43.0504 26.8192 43.0504 30.3686 42.8489C33.8124 42.6858 36.863 41.899 39.3763 39.3755C41.8896 36.8616 42.6762 33.8104 42.8489 30.3658C43.0504 26.8156 43.0504 16.1844 42.8489 12.6342ZM38.2635 34.175C37.5153 36.0556 36.0668 37.5045 34.177 38.2625C31.3471 39.3851 24.6321 39.126 21.5048 39.126C18.3775 39.126 11.6529 39.3755 8.83263 38.2625C6.95243 37.5141 5.5039 36.0652 4.74607 34.175C3.6237 31.3445 3.88271 24.628 3.88271 21.5C3.88271 18.372 3.6333 11.6459 4.74607 8.825C5.49431 6.94438 6.94283 5.49554 8.83263 4.73753C11.6625 3.61492 18.3775 3.87398 21.5048 3.87398C24.6321 3.87398 31.3567 3.62451 34.177 4.73753C36.0572 5.48594 37.5057 6.93479 38.2635 8.825C39.3859 11.6555 39.1269 18.372 39.1269 21.5C39.1269 24.628 39.3859 31.3541 38.2635 34.175Z" fill="black"/>
</svg>
