<svg xmlns="http://www.w3.org/2000/svg" viewBox="0 0 67.19 34.08"><defs><style>.cls-1{stroke:#000;stroke-linejoin:round;stroke-width:3px;}</style></defs><g id="레이어_2" data-name="레이어 2"><g id="레이어_1-2" data-name="레이어 1"><g id="Layer_2" data-name="Layer 2"><g id="Layer_1-2" data-name="Layer 1-2"><path class="cls-1" d="M5.76,32.58H1.5v-31H5.76A14.31,14.31,0,0,1,16.58,6.22a15.43,15.43,0,0,1,0,21.63A14.3,14.3,0,0,1,5.76,32.58Zm0-1.33A13.09,13.09,0,0,0,15.62,27a14.13,14.13,0,0,0,0-19.82A13.09,13.09,0,0,0,5.76,2.87H2.83V31.25Z"/><path class="cls-1" d="M21.93,31.25h20.2L32.73,5.4,22.84,32.58H21.42L32.73,1.5,44,32.58H21.93Z"/><path class="cls-1" d="M65.69,32.58H47.6L63.38,2.87H48.75V1.55H65.56L49.82,31.25H65.69Z"/></g></g></g></g></svg>