<?xml version="1.0" encoding="utf-8"?>
<!-- Generator: Adobe Illustrator 26.0.3, SVG Export Plug-In . SVG Version: 6.00 Build 0)  -->
<svg version="1.1" id="레이어_1" xmlns="http://www.w3.org/2000/svg" xmlns:xlink="http://www.w3.org/1999/xlink" x="0px"
	 y="0px" viewBox="0 0 70.8 35.3" style="enable-background:new 0 0 70.8 35.3;" xml:space="preserve">
<style type="text/css">
	.st0{stroke:#000000;stroke-width:2;stroke-linejoin:round;}
</style>
<g id="Layer_2">
	<g id="Layer_1-2">
		<path class="st0" d="M5.6,34.3H1V1h4.6c4.4-0.1,8.6,1.7,11.6,5c6.3,6.4,6.3,16.7,0,23.2C14.2,32.5,10,34.3,5.6,34.3z M5.6,32.9
			c4,0.1,7.9-1.6,10.6-4.6c5.8-5.9,5.8-15.3,0-21.2c-2.7-3-6.5-4.6-10.6-4.6H2.4v30.4H5.6z"/>
		<path class="st0" d="M22.9,32.9h21.6L34.5,5.2L23.9,34.3h-1.5L34.5,1l12.1,33.3H22.9V32.9z"/>
		<path class="st0" d="M69.8,34.3H50.4L67.3,2.5H51.6V1h18L52.8,32.9h17V34.3z"/>
	</g>
</g>
</svg>
