<svg width="10" height="17" viewBox="0 0 10 17" fill="none" xmlns="http://www.w3.org/2000/svg">
<path d="M9.99901 11.4469C9.99901 14.3292 8.64889 16.5 5.86597 16.5C4.34658 16.5 3.29167 15.7198 2.86951 14.7223V16.2827H0V0.782972L3.03877 0.5V7.39237C3.4816 6.48282 4.45286 5.74507 5.86696 5.74507C8.65282 5.74507 10 7.91283 10 10.7981L9.99901 11.4469ZM6.96024 10.7314C6.96024 9.27918 6.41212 8.19581 4.95572 8.19581C3.7099 8.19581 3.03483 9.10536 3.03483 10.5798V11.6632C3.03483 13.1367 3.7099 14.0472 4.95572 14.0472C6.41212 14.0472 6.96024 12.9639 6.96024 11.5116V10.7314Z" fill="#03CF5D"/>
</svg>
