<svg width="35" height="35" viewBox="0 0 35 35" fill="none" xmlns="http://www.w3.org/2000/svg">
<rect width="34.178" height="34.178" rx="17.089" fill="#03CF5D"/>
<path d="M22.5565 19.8947C22.5565 22.9731 21.0799 25.2916 18.0362 25.2916C16.3744 25.2916 15.2207 24.4583 14.759 23.393V25.0596H11.6206V8.50487L14.9441 8.20264V15.5641C15.4284 14.5927 16.4907 13.8047 18.0373 13.8047C21.0842 13.8047 22.5576 16.12 22.5576 19.2017L22.5565 19.8947ZM19.233 19.1304C19.233 17.5794 18.6335 16.4222 17.0407 16.4222C15.6781 16.4222 14.9398 17.3937 14.9398 18.9685V20.1256C14.9398 21.6994 15.6781 22.6719 17.0407 22.6719C18.6335 22.6719 19.233 21.5148 19.233 19.9637V19.1304Z" fill="white"/>
</svg>
