<svg width="1133" height="159" viewBox="0 0 1133 159" fill="none" xmlns="http://www.w3.org/2000/svg">
<path d="M0 1.30396V157.076H102.456V122.944H37.0467V95.5885H92.9168V61.4722H37.0467V35.4353H102.456V1.30396H0Z" fill="url(#paint0_linear_1_1080)"/>
<path d="M194.953 1.30396V101.509C194.953 108.794 193.108 114.415 189.448 118.343C185.773 122.285 180.839 124.264 174.629 124.264C168.42 124.264 163.38 122.255 159.916 118.253C156.451 114.251 154.726 108.659 154.726 101.509V1.30396H117.679V102.379C117.679 119.152 123.244 132.778 134.403 143.285C145.112 153.343 158.536 158.38 174.614 158.38C190.693 158.38 204.282 153.208 215.366 142.851C226.435 132.493 231.984 119.017 231.984 102.379V1.30396H194.938H194.953Z" fill="url(#paint1_linear_1_1080)"/>
<path d="M303.753 0C295.279 0 287.569 1.49896 280.58 4.48189C273.591 7.47981 267.351 11.8118 261.847 17.5078C254.632 24.9577 250.058 34.3561 248.093 45.7332C247.103 51.4293 246.608 62.5816 246.608 79.205C246.608 95.8285 247.178 106.276 248.303 112.692C250.268 124.219 254.782 133.617 261.847 140.917C273.126 152.579 287.104 158.41 303.753 158.41C318.707 158.41 331.125 154.258 341.01 145.939C351.599 137.05 358.213 124.279 360.898 107.655H323.221C321.811 112.752 319.831 116.634 317.297 119.242C314.057 122.6 309.602 124.279 303.963 124.279C297.468 124.279 292.594 122.09 289.369 117.713C287.239 114.79 285.769 110.968 284.915 106.231C284.075 101.495 283.655 92.5008 283.655 79.205C283.655 65.9092 284.15 57.3652 285.139 52.1938C286.129 47.0224 287.479 43.26 289.159 40.9216C290.854 38.5982 292.894 36.8744 295.294 35.7951C297.693 34.7009 300.588 34.1463 303.978 34.1463C309.767 34.1463 314.267 35.8251 317.522 39.1828C319.921 41.6561 321.826 45.5234 323.236 50.7697H360.913C358.228 34.1463 351.614 21.3752 341.025 12.4863C331.005 4.1821 318.587 0.0149896 303.768 0.0149896L303.753 0Z" fill="url(#paint2_linear_1_1080)"/>
<path d="M408.969 1.30396H371.922V157.076H472.248V122.944H408.969V1.30396Z" fill="url(#paint3_linear_1_1080)"/>
<path d="M522.434 1.30396H485.387V157.061H522.434V1.30396Z" fill="url(#paint4_linear_1_1080)"/>
<path d="M652.712 35.1205C650.087 28.1803 646.218 22.0645 641.058 16.7432C635.913 11.4219 629.914 7.50965 623.06 5.03636C616.205 2.54809 608.631 1.30396 600.307 1.30396H544.422V157.076H600.307C608.346 157.076 615.905 155.802 622.97 153.253C630.019 150.69 636.018 146.868 640.953 141.756C647.867 134.606 652.382 126.587 654.512 117.683C655.907 111.867 656.612 102.813 656.612 90.567V68.0226C656.612 53.0031 655.322 42.0307 652.712 35.1055V35.1205ZM618.845 104.477C618.35 108.48 617.225 111.807 615.455 114.415C613.685 117.054 611.391 119.122 608.586 120.651C605.751 122.18 602.151 122.944 597.787 122.944H581.483V35.4353H597.787C602.301 35.4353 605.946 36.1697 608.691 37.6237C611.436 39.0927 613.67 41.1163 615.365 43.7395C617.06 46.3627 618.185 49.7653 618.74 53.9024C619.31 58.0695 619.595 66.4787 619.595 79.1749C619.595 91.8711 619.355 100.445 618.86 104.462L618.845 104.477Z" fill="url(#paint5_linear_1_1080)"/>
<path d="M765.652 83.3422C762.412 80.4342 758.738 78.1258 754.643 76.462C750.548 74.7981 745.059 73.4341 738.13 72.4148L721.616 69.8066C717.656 69.0721 713.862 67.9329 710.187 66.4189C706.512 64.875 703.543 63.1662 701.293 61.2625C696.763 57.1853 694.528 51.2045 694.528 43.335C694.528 34.4461 697.318 27.401 702.898 22.2296C708.477 17.0432 716.261 14.465 726.281 14.465C733.9 14.465 740.499 15.5892 746.079 17.8527C751.643 20.1161 756.773 23.4288 761.437 27.8057L771.802 17.0882C765.172 10.9574 758.438 6.59547 751.583 3.97229C744.744 1.34911 736.525 0.0300293 726.926 0.0300293C712.107 0.0300293 700.363 4.03225 691.679 12.0517C682.994 20.0711 678.66 30.7287 678.66 43.9945C678.66 56.4059 682.469 66.0892 690.089 73.0893C696.583 78.9352 705.822 82.8625 717.821 84.9011L735.385 87.7491C740.754 88.6185 744.804 89.5779 747.564 90.5971C750.308 91.6164 752.813 93.1454 755.078 95.184C759.863 99.5609 762.277 106.051 762.277 114.655C762.277 123.694 759.098 130.769 752.753 135.866C746.409 140.977 737.725 143.525 726.701 143.525C717.956 143.525 710.442 142.251 704.173 139.703C697.888 137.155 691.709 132.733 685.649 126.467L674.64 137.844C681.974 145.429 689.519 150.75 697.288 153.808C705.042 156.866 714.717 158.395 726.296 158.395C742.239 158.395 754.898 154.423 764.287 146.478C773.676 138.534 778.371 127.771 778.371 114.206C778.371 100.64 774.141 90.792 765.667 83.3572L765.652 83.3422Z" fill="#404041"/>
<path d="M881.937 16.1888C871.483 5.39625 858.659 0 843.42 0C828.182 0 815.328 5.39625 804.889 16.1888C797.134 24.2082 792.605 35.0906 791.345 48.7911C790.925 53.6028 790.715 63.7357 790.715 79.205C790.715 97.867 791.45 111.358 792.935 119.677C794.419 127.996 798.409 135.506 804.889 142.206C815.328 152.999 828.182 158.395 843.42 158.395C858.659 158.395 871.498 152.999 881.937 142.206C889.691 134.187 894.206 123.319 895.481 109.604C895.915 104.792 896.111 94.6593 896.111 79.205C896.111 60.543 895.481 47.6969 894.206 40.7117C892.511 31.0884 888.416 22.9191 881.937 16.2037V16.1888ZM878.232 114.97C877.032 121.611 874.107 127.412 869.443 132.373C862.528 139.808 853.844 143.51 843.405 143.51C832.966 143.51 824.267 139.808 817.368 132.373C812.703 127.561 809.778 121.76 808.578 114.97C807.378 108.18 806.778 96.2632 806.778 79.205C806.778 62.1468 807.378 50.0802 808.578 43.4398C809.778 36.8144 812.718 31.0135 817.368 26.0519C824.267 18.6171 832.951 14.8997 843.405 14.8997C853.859 14.8997 862.528 18.6171 869.443 26.0519C874.107 30.8636 877.032 36.6645 878.232 43.4398C879.432 50.2301 880.032 62.1468 880.032 79.205C880.032 96.2632 879.432 108.33 878.232 114.97Z" fill="#404041"/>
<path d="M918.414 157.076H934.507V88.3786H1000.56V73.509H934.507V15.9639H1011.99V1.09424H918.414V157.076Z" fill="#404041"/>
<path d="M1028.74 1.09424V15.9639H1072.34V157.076H1088.44V15.9639H1132.04V1.09424H1028.74Z" fill="#404041"/>
<defs>
<linearGradient id="paint0_linear_1_1080" x1="-0.499756" y1="81.0555" x2="656.471" y2="81.0555" gradientUnits="userSpaceOnUse">
<stop stop-color="#2E3092"/>
<stop offset="1" stop-color="#00AEEF"/>
</linearGradient>
<linearGradient id="paint1_linear_1_1080" x1="-0.589874" y1="80.8606" x2="655.148" y2="80.8606" gradientUnits="userSpaceOnUse">
<stop stop-color="#2E3092"/>
<stop offset="1" stop-color="#00AEEF"/>
</linearGradient>
<linearGradient id="paint2_linear_1_1080" x1="-0.589996" y1="80.7558" x2="655.148" y2="80.7558" gradientUnits="userSpaceOnUse">
<stop stop-color="#2E3092"/>
<stop offset="1" stop-color="#00AEEF"/>
</linearGradient>
<linearGradient id="paint3_linear_1_1080" x1="-0.784793" y1="80.6508" x2="656.186" y2="80.6508" gradientUnits="userSpaceOnUse">
<stop stop-color="#2E3092"/>
<stop offset="1" stop-color="#00AEEF"/>
</linearGradient>
<linearGradient id="paint4_linear_1_1080" x1="0.732643" y1="80.1711" x2="655.239" y2="80.1711" gradientUnits="userSpaceOnUse">
<stop stop-color="#2E3092"/>
<stop offset="1" stop-color="#00AEEF"/>
</linearGradient>
<linearGradient id="paint5_linear_1_1080" x1="-0.464894" y1="79.1899" x2="655.982" y2="79.1899" gradientUnits="userSpaceOnUse">
<stop stop-color="#2E3092"/>
<stop offset="1" stop-color="#00AEEF"/>
</linearGradient>
</defs>
</svg>
