<svg width="42" height="42" viewBox="0 0 42 42" fill="none" xmlns="http://www.w3.org/2000/svg">
<circle cx="21" cy="21" r="21" fill="white"/>
<path d="M10.2929 25.2929C9.90237 25.6834 9.90237 26.3166 10.2929 26.7071C10.6834 27.0976 11.3166 27.0976 11.7071 26.7071L10.2929 25.2929ZM21 16L21.7071 15.2929C21.3166 14.9024 20.6834 14.9024 20.2929 15.2929L21 16ZM30.2929 26.7071C30.6834 27.0976 31.3166 27.0976 31.7071 26.7071C32.0976 26.3166 32.0976 25.6834 31.7071 25.2929L30.2929 26.7071ZM11.7071 26.7071L21.7071 16.7071L20.2929 15.2929L10.2929 25.2929L11.7071 26.7071ZM20.2929 16.7071L30.2929 26.7071L31.7071 25.2929L21.7071 15.2929L20.2929 16.7071Z" fill="#595A64"/>
</svg>
