<svg xmlns="http://www.w3.org/2000/svg" viewBox="0 0 147.92 101.84"><defs><style>.cls-1{fill:#b32b5b;}</style></defs><g id="레이어_2" data-name="레이어 2"><g id="Layer_1" data-name="Layer 1"><path class="cls-1" d="M57.77,66.32l7.33-3.59a2.26,2.26,0,0,0,1.27-2V46.85a9.06,9.06,0,0,1,18.12,0V60.69a2.27,2.27,0,0,0,1.28,2l7.33,3.59a1.36,1.36,0,0,0,2-1.22V46.85a19.63,19.63,0,0,0-39.25,0V65.1A1.36,1.36,0,0,0,57.77,66.32Z"/><path class="cls-1" d="M84.32,16.48l7.33,3.59a2.29,2.29,0,0,1,1.27,2.05V36A9.06,9.06,0,0,0,111,36V22.12a2.3,2.3,0,0,1,1.28-2.05l7.32-3.59a1.37,1.37,0,0,1,2,1.23V36a19.63,19.63,0,0,1-39.25,0V17.71A1.37,1.37,0,0,1,84.32,16.48Z"/><path class="cls-1" d="M22.45,27.23a19.63,19.63,0,1,0,15.3,31.92,1.36,1.36,0,0,0-.4-2,24.61,24.61,0,0,1-6.09-4.73,1.15,1.15,0,0,0-1.75.08,9,9,0,1,1,1-9.57L40,38.23A19.57,19.57,0,0,0,22.45,27.23Z"/><path class="cls-1" d="M50.19,16.36a19.57,19.57,0,0,0-10.32,2.16V1.37a1.36,1.36,0,0,0-2-1.23L30.54,3.75a2.28,2.28,0,0,0-1.27,2V36h0A19.63,19.63,0,1,0,50.19,16.36ZM48.89,45A9.06,9.06,0,1,1,58,36,9.06,9.06,0,0,1,48.89,45Z"/><path class="cls-1" d="M40.67,58.61a.62.62,0,0,0-.71.23,20.42,20.42,0,0,1-2.51,3,21.21,21.21,0,1,1,0-30l.88-.87a22.45,22.45,0,1,0,0,31.76A22,22,0,0,0,41,59.54a.6.6,0,0,0-.29-.92Z"/><path class="cls-1" d="M141.81,68.68l-.08-.11a18.7,18.7,0,0,0-1.66-2.15,19.41,19.41,0,0,0-4-3.38L136,63c-.33-.22-.68-.42-1-.61l-.18-.1c-.31-.17-.63-.33-.95-.48l-.26-.12c-.32-.14-.64-.28-1-.4l-.26-.1c-.38-.14-.76-.27-1.15-.39l-.56-.15-.65-.17-.63-.13-.63-.12-.62-.09-.74-.08-.52-.05c-.42,0-.84,0-1.26,0h-.19q-.91,0-1.83.09h-.24A19.61,19.61,0,0,0,107,73.25h0l0,.12a19.33,19.33,0,0,0-.84,3.57c0,.22,0,.44-.07.66s-.07.68-.09,1,0,1,0,1.45c0,.1,0,.2,0,.31s0,.29,0,.44c0,.33.05.67.08,1s0,.4.07.59c.08.54.18,1.09.3,1.63a.19.19,0,0,1,0,.08A19.51,19.51,0,0,0,117.32,97.4l.24.11c.44.19.89.37,1.34.53l.55.19c.37.12.75.24,1.13.34l.82.19c.32.06.64.13,1,.18s.65.09,1,.13.59.07.89.09a3,3,0,0,1,.31,0c.44,0,.88,0,1.31,0h.1c.58,0,1.16,0,1.73-.11l.19,0c.6-.07,1.2-.18,1.8-.3l.09,0a19.3,19.3,0,0,0,3.61-1.18l0,0c.59-.26,1.16-.54,1.71-.85l.08,0a19.84,19.84,0,0,0,5.62-4.77l.11-.18A19.72,19.72,0,0,0,141.81,68.68Zm-17.34,1.95h0a8.83,8.83,0,0,1,1.36,0,8.48,8.48,0,0,1,.87.06c.21,0,.41.08.62.12l.54.12a6.17,6.17,0,0,1,.61.19l.52.2c.19.08.37.16.56.26a4.82,4.82,0,0,1,.5.27l.52.32.46.34.48.4c.14.12.27.26.4.39s.3.3.44.47a8,8,0,0,1,.62.79.41.41,0,0,0,.07.11,8.92,8.92,0,0,1,.49.85,9,9,0,0,1-1,9.72,8.67,8.67,0,0,1-1.2,1.22l-.24.22-.49.35c-.12.08-.23.17-.36.24l-.48.28-.42.22-.5.22-.46.16-.51.17-.56.13-.43.08a6.91,6.91,0,0,1-1,.1h-.3a7.36,7.36,0,0,1-.81,0l-.46,0-.33,0-.54-.11-.32-.08c-.17,0-.33-.1-.5-.15a8.86,8.86,0,0,1-.85-.34l-.15-.06-.59-.31-.1-.06a6.17,6.17,0,0,1-.6-.39h0a9.52,9.52,0,0,1-1.5-1.33c-.11-.12-.21-.24-.31-.37a7,7,0,0,1-.52-.7c-.1-.14-.2-.29-.28-.43a4.82,4.82,0,0,1-.27-.5c-.12-.24-.24-.48-.34-.73s-.11-.31-.16-.47a6.32,6.32,0,0,1-.18-.62c0-.13-.08-.27-.11-.41a8.89,8.89,0,0,1-.13-.88c0-.22,0-.43,0-.64v-.49a5.68,5.68,0,0,1,0-.59c0-.2,0-.39.07-.59s0-.33.08-.49a9.43,9.43,0,0,1,.27-1A9,9,0,0,1,124.47,70.63Z"/><path class="cls-1" d="M109.19,65.05a.61.61,0,0,0,.75-.12,21.62,21.62,0,0,1,2.92-2.62A21.22,21.22,0,1,1,108.4,92l-1,.74A22.48,22.48,0,1,0,109,64.09a.62.62,0,0,0,.15,1Z"/><path class="cls-1" d="M89.91,58.22A19.62,19.62,0,0,0,70.28,77.84V96.08a1.37,1.37,0,0,0,2,1.23l7.33-3.6a2.26,2.26,0,0,0,1.27-2V86.83H99v4.84a2.26,2.26,0,0,0,1.27,2l7.33,3.6a1.37,1.37,0,0,0,2-1.23V77.84A19.62,19.62,0,0,0,89.91,58.22ZM80.85,79.59V77.84a9.06,9.06,0,0,1,18.12,0v1.75Z"/></g></g></svg>